<?xml version="1.0" encoding="UTF-8" standalone="no"?>
<!-- Created with Inkscape (http://www.inkscape.org/) -->

<svg
   version="1.1"
   id="svg9"
   width="506"
   height="474"
   viewBox="0 0 506 474"
   xmlns="http://www.w3.org/2000/svg"
   xmlns:svg="http://www.w3.org/2000/svg">
  <defs
     id="defs13" />
  <g
     id="g15">
    <path
       style="fill:#000000;stroke-width:0.980114"
       d="M 12.156383,235.65844 V -4.3415632 h 239.999997 240 v 240.0000032 240 h -240 -239.999997 z m 394.746347,164.4897 c 5.90015,-3.25707 5.57495,6.54273 5.51632,-166.22933 -0.0584,-172.187141 0.23618,-163.480551 -5.63816,-166.613231 -5.14401,-2.7432 -294.61884,-2.7432 -299.76285,0 -5.87414,3.13257 -5.57972,-5.55827 -5.63816,166.429601 -0.0576,169.54992 -0.2689,162.60273 5.05063,166.06545 4.1846,2.72393 295.55688,3.06093 300.47222,0.34751 z M 158.71764,379.18025 c -6.26214,-2.73588 -13.73311,-12.7081 -13.76023,-18.3671 -0.0274,-5.72418 -2.01349,-8.67935 -5.72865,-8.52395 l -3.75222,0.15695 v 4.39095 4.39096 h -7.11463 c -8.2902,0 -8.01815,0.7177 -4.3746,-11.54083 1.50701,-5.07027 3.47837,-13.6617 4.3808,-19.09208 l 1.64076,-9.87342 h 9.22737 9.22735 l 1.12334,9.87342 c 2.60415,22.88872 5.89477,34.04819 11.53345,39.11312 4.08465,3.66904 6.40372,3.55499 5.87523,-0.28895 -0.93844,-6.82566 8.40317,-7.57095 10.61827,-0.84714 2.71996,8.25631 -9.09608,14.88967 -18.89624,10.60807 z m -17.8666,-37.62712 c -0.28609,-0.79589 -0.8267,-3.18829 -1.20135,-5.31645 l -0.68118,-3.86938 -1.19951,3.5443 c -1.91098,5.64654 -1.68126,7.08861 1.12919,7.08861 1.7539,0 2.32177,-0.4208 1.95285,-1.44708 z m 28.30139,17.99226 c -19.02048,-10.70428 -11.09486,-41.76722 10.10201,-39.59296 10.50702,1.07774 13.62147,16.97183 3.32565,16.97183 -4.15648,0 -6.83261,-5.06244 -3.70434,-7.00749 1.47568,-0.91754 1.41822,-1.03561 -0.51743,-1.06298 -7.08597,-0.10025 -9.50607,12.50952 -3.60905,18.80465 3.90398,4.16754 6.94565,4.40137 10.91174,0.83881 3.43253,-3.08327 4.83529,-2.52268 4.83529,1.93234 0,8.72302 -12.53158,14.07516 -21.34387,9.1158 z m 36.87025,-1.10214 c 2.03889,-9.96682 2.78167,-23.14237 1.47007,-26.07595 -1.64269,-3.67408 -5.77804,-4.61525 -8.54279,-1.94427 -1.76507,1.7052 -1.81334,1.59939 -1.81334,-3.97473 v -5.72657 h 15.17786 15.17787 v 5.62704 c 0,5.61258 -0.006,5.62299 -2.10831,4.05063 -7.33649,-5.48559 -9.71403,1.27238 -7.2695,20.66297 1.25072,9.9209 1.10638,10.12733 -7.09642,10.15018 l -5.56512,0.0155 0.56968,-2.78481 z m 93.02692,-17.46716 0.0633,-20.25197 6.52441,-0.001 6.5244,-10e-4 -0.66437,4.3038 c -1.5982,10.35313 -2.14031,20.62199 -1.44543,27.3796 0.92519,8.99718 1.03585,8.82293 -5.60375,8.82293 h -5.46186 l 0.0633,-20.25197 z m 30.28817,17.46716 c 1.98205,-9.77583 2.72922,-23.27017 1.44723,-26.13792 -1.61488,-3.6124 -5.77265,-4.53152 -8.51488,-1.8823 -1.76507,1.7052 -1.81334,1.59939 -1.81334,-3.97473 v -5.72657 h 15.65217 15.65217 v 5.56962 c 0,6.32648 0.21482,6.1291 -4.21584,3.87364 -6.93299,-3.52931 -8.58342,2.56811 -5.8814,21.72842 1.41079,10.00404 1.86242,9.33465 -6.29793,9.33465 h -6.5928 z m 39.21685,-1.01266 c 1.58558,-7.99653 0.65644,-12.37741 -5.26197,-24.81013 l -5.66421,-11.89873 h 7.97543 7.97543 l 0.0145,5.82278 c 0.0268,10.74775 4.02791,9.78015 4.18448,-1.01195 l 0.0698,-4.80941 7.35178,-7.1e-4 c 4.04347,-4e-4 7.35177,0.14935 7.35177,0.33277 0,0.18341 -1.93464,3.9429 -4.2992,8.35443 -6.97684,13.01657 -9.17855,23.05636 -6.5891,30.04627 0.59066,1.59443 -0.0715,1.77215 -6.60259,1.77215 h -7.25911 l 0.75298,-3.79747 z M 236.50421,340.46955 v -19.74593 l 6.5244,-9.4e-4 6.52441,-9.5e-4 -0.66166,4.3038 c -1.1783,7.66443 -2.30207,20.78457 -1.94393,22.69565 0.19185,1.02372 0.56848,4.25371 0.83696,7.17776 l 0.48814,5.31646 -5.88416,3e-5 -5.88416,4e-5 z m 28.33275,17.38853 c 0.99013,-4.21137 -1.1042,-18.31777 -4.08141,-27.49022 -1.59911,-4.92669 -2.90747,-9.11253 -2.90747,-9.30187 0,-0.18934 3.20158,-0.34426 7.11462,-0.34426 h 7.11463 v 4.10389 c 0,2.25714 0.69058,7.34512 1.53462,11.30662 1.9652,9.22368 3.15916,7.43289 3.90162,-5.85195 l 0.53421,-9.55856 h 6.91873 6.91874 l -2.3456,7.34177 c -2.57921,8.07297 -5.13031,22.11259 -5.13031,28.23392 v 3.91798 h -10.06331 c -10.06205,0 -10.06324,-2.9e-4 -9.50907,-2.35732 z m 31.91732,-51.39706 c -47.82073,-11.51256 -71.65208,-47.33398 -77.32082,-116.2226 -0.78885,-9.58645 -1.50848,-11.71752 -2.60214,-7.70587 -3.89477,14.28644 -5.55204,24.08915 -6.30347,37.28482 l -0.58491,10.27145 h -15.631 -15.63101 l -1.6093,-12.07115 c -1.74745,-13.10736 -2.26284,-15.64843 -6.64025,-32.73898 -1.60486,-6.26582 -3.417,-11.3924 -4.02697,-11.3924 -2.24413,0 -5.26806,26.66002 -5.29979,46.72481 l -0.0155,9.76277 -18.46444,0.73907 c -24.3257,0.97368 -22.51216,2.32546 -19.03555,-14.18868 4.20825,-19.9896 6.76573,-34.41568 7.98889,-45.06329 2.01437,-17.53524 3.19745,-47.18711 2.53566,-63.55207 l -0.66643,-16.479711 26.6998,0.26905 26.69981,0.26906 0.30588,14.177211 c 0.17293,8.01503 0.95169,17.18493 1.79168,21.097 2.49903,11.63883 4.77399,18.93688 5.7961,18.59388 2.93745,-0.98572 9.6663,-29.08563 10.5976,-44.25589 l 0.6212,-10.118531 h 25.58752 25.58752 l -0.58945,5.82278 c -2.4531,24.232441 -1.52344,75.257571 1.80351,98.987351 0.70278,5.01265 1.95287,13.89873 2.77797,19.74683 2.90994,20.62484 6.57581,31.81726 14.49867,44.26644 10.34163,16.24982 37.19614,27.94976 53.02347,23.10123 10.60906,-3.24998 19.02108,-10.25374 12.31549,-10.25374 -17.36191,0 -13.0109,-27.9993 4.59318,-29.55773 14.99498,-1.32744 27.29911,14.99424 23.26853,30.86618 -6.86483,27.0328 -36.71982,40.1314 -72.07149,31.62071 z m 23.37028,-72.3048 c -10.20433,-2.38061 -18.39082,-10.81639 -17.20901,-17.73308 2.71804,-15.90769 21.91991,-15.94284 23.91756,-0.0437 0.6271,4.99109 1.16838,5.04146 5.83299,0.54277 3.98157,-3.83995 11.00742,-17.64412 9.69392,-19.04629 -0.44342,-0.47336 -2.45819,-0.37099 -4.47726,0.22749 -37.63008,11.15387 -66.33988,-48.3347 -41.988,-87.00188 19.77723,-31.403311 68.76722,-33.236161 88.24871,-3.30163 15.60102,23.97198 10.27843,84.63048 -9.30492,106.04259 -16.48909,18.02889 -35.01893,24.9085 -54.71399,20.31378 z m 21.87993,-58.21189 c 13.0264,-8.47878 14.35504,-51.22066 2.01116,-64.69863 -14.86931,-16.235441 -27.90408,29.1516 -16.10332,56.07173 4.16648,9.50461 8.58653,12.21048 14.09216,8.6269 z"
       id="path649" />
    <path
       style="fill:#ffcc00;stroke-width:0.306995"
       d="m 178.51749,401.54454 c -28.82986,-0.28666 -55.69732,-0.80172 -64.77591,-1.24179 -5.57285,-0.27013 -6.45049,-0.38473 -7.66548,-1.00091 -0.75465,-0.38272 -1.62178,-1.12337 -1.92695,-1.64589 -1.50703,-2.5804 -2.00926,-9.81303 -2.38367,-34.32758 -0.32441,-21.24069 -0.41155,-224.81648 -0.10109,-236.1828 l 0.2026,-7.41759 h 16.06812 16.06813 l -0.003,6.67714 c -0.006,13.39914 -1.24128,34.34631 -2.77365,47.04695 -1.19742,9.92449 -4.97128,30.56421 -9.0373,49.42617 -1.15307,5.34897 -1.00076,6.8648 0.79974,7.95976 1.8595,1.13082 5.02395,1.11438 33.92195,-0.17627 l 4.33439,-0.19358 0.17227,-12.31406 c 0.19075,-13.63551 0.79541,-22.56316 2.24792,-33.18971 0.79444,-5.81216 2.06654,-10.89832 2.72579,-10.89832 1.13266,0 7.14131,22.37084 9.029,33.61593 0.55586,3.31124 3.0973,21.59606 3.0973,22.28399 0,0.16522 6.48553,0.28013 15.81023,0.28013 h 15.81023 l 0.002,-0.99773 c 0.002,-1.55337 0.57403,-10.71066 0.93453,-14.966 0.71464,-8.43577 1.92594,-15.69986 4.14655,-24.86658 1.52667,-6.30214 2.21434,-8.59585 2.57709,-8.59585 0.40699,0 0.90005,3.21449 1.55393,10.13083 2.35668,24.92746 6.04955,42.5506 12.19047,58.17552 8.96536,22.81164 22.25182,38.41195 41.52983,48.76243 12.49681,6.7096 30.41731,11.25383 44.38418,11.25479 25.1107,0.002 44.22213,-11.88157 50.64571,-31.49103 3.30117,-10.07758 1.29947,-19.63871 -5.62998,-26.89169 -2.70604,-2.83239 -5.69396,-4.78907 -9.12076,-5.97289 -2.12988,-0.73578 -2.92471,-0.84817 -5.9864,-0.84643 -2.86559,0.002 -3.90623,0.13238 -5.52591,0.69438 -6.72352,2.33292 -11.41766,8.78715 -11.88854,16.3462 -0.25499,4.09325 0.62423,6.996 2.87295,9.48507 1.57709,1.74565 3.77872,2.71403 7.0034,3.08045 3.06552,0.34833 3.24017,0.41341 3.24017,1.20735 0,3.04001 -11.91057,9.03244 -19.47784,9.79965 -13.94137,1.41345 -33.7838,-7.23347 -44.30992,-19.30934 -4.31565,-4.95105 -9.41413,-14.31994 -12.16082,-22.34656 -2.87384,-8.3982 -4.22784,-15.06645 -6.93265,-34.1422 -2.61699,-18.45646 -3.17616,-23.92118 -3.98942,-38.98835 -0.78957,-14.62813 -1.23623,-44.22171 -0.73094,-48.42843 l 0.19359,-1.61172 h 17.76294 c 9.76961,0 17.76294,0.0398 17.76294,0.0883 0,0.0486 -0.40609,1.25738 -0.90241,2.6862 -2.29117,6.59586 -3.12952,11.45719 -3.3164,19.23078 -0.21751,9.04731 0.72827,15.71155 3.34692,23.5834 5.69518,17.12015 17.29063,29.66525 30.83199,33.35711 1.98864,0.54217 3.31644,0.66618 7.33977,0.68551 4.35839,0.0209 5.29861,-0.071 8.34343,-0.81554 3.87194,-0.94683 5.25764,-1.04622 5.50752,-0.39503 0.48077,1.25285 -3.2125,9.39876 -6.5634,14.47631 -1.88533,2.85679 -5.06811,6.25814 -6.61887,7.07338 -1.23597,0.64976 -1.62903,0.17958 -2.03967,-2.43981 -1.04182,-6.64562 -3.61249,-10.46024 -8.21268,-12.18684 -2.48306,-0.93197 -5.97275,-0.7793 -8.44248,0.36935 -3.71539,1.72799 -6.38679,5.37953 -7.45798,10.19431 -0.46616,2.09528 -0.46744,2.42843 -0.0162,4.18999 1.72187,6.72111 8.83181,12.52876 17.82541,14.56043 11.20884,2.53211 22.28634,1.19449 32.84844,-3.96646 9.50513,-4.64449 19.83632,-13.53636 25.22143,-21.70763 12.80626,-19.43199 18.15739,-58.10219 11.75515,-84.94916 -0.49758,-2.08654 -0.90469,-3.84792 -0.90469,-3.91418 0,-0.0663 5.04239,-0.12047 11.20531,-0.12047 h 11.20531 l 0.0768,66.54113 c 0.16652,144.36801 -0.0855,194.69118 -1.0237,204.3818 -0.61814,6.38494 -1.15774,7.77128 -3.45932,8.88736 -1.45482,0.70547 -2.1157,0.7915 -8.33401,1.0848 -3.71464,0.17522 -13.93757,0.46487 -22.71762,0.64368 -20.05182,0.40837 -164.64694,0.61106 -198.16515,0.27779 z m -10.54615,-21.15742 c 5.43949,-1.03157 9.48076,-4.43504 10.10473,-8.50998 0.26696,-1.74345 -0.55699,-4.4285 -1.78984,-5.83264 -2.55281,-2.90749 -6.8423,-2.97525 -8.73769,-0.13803 -0.57581,0.86194 -0.69686,1.45921 -0.69686,3.43844 0,2.6914 -0.33251,3.16572 -1.90345,2.71518 -2.37066,-0.6799 -5.55763,-3.91288 -7.57139,-7.6807 -3.69464,-6.91285 -5.75529,-16.79799 -8.41057,-40.34636 l -0.38078,-3.37694 h -9.35348 -9.35348 l -0.55118,3.37694 c -1.81646,11.12896 -3.36621,18.23358 -5.92413,27.15832 -1.87549,6.54367 -2.12479,7.70786 -1.86891,8.72738 0.29829,1.18848 1.58512,1.41417 8.06331,1.41417 h 5.94059 v -4.48106 -4.48106 l 2.89468,0.10639 c 2.35583,0.0866 3.05553,0.22658 3.75878,0.75208 1.47279,1.10054 2.2183,3.00034 2.55077,6.50017 0.35924,3.78177 1.24963,6.2359 3.53336,9.73884 5.45053,8.36041 12.5201,12.27966 19.69554,10.91886 z m 11.90074,-19.20745 c 4.54231,-0.96228 8.03053,-3.3623 9.67772,-6.65861 0.79131,-1.58355 0.94049,-2.23722 0.94049,-4.12106 0,-4.3866 -1.142,-4.89437 -4.76558,-2.11894 -3.56453,2.73021 -5.04416,3.12145 -7.43251,1.96528 -4.74158,-2.29536 -7.59579,-8.68773 -6.40766,-14.35078 0.55858,-2.66241 1.61899,-4.61192 3.13937,-5.77156 0.85624,-0.65309 1.51304,-0.86223 2.98635,-0.95091 l 1.8887,-0.1137 -0.98021,0.65257 c -2.62596,1.74822 -1.6531,5.44304 1.81459,6.89157 2.05827,0.85979 4.47818,0.43568 6.21497,-1.08925 4.25387,-3.73494 1.2904,-12.6546 -4.99198,-15.02518 -2.27633,-0.85895 -6.74097,-0.93337 -9.42524,-0.15712 -8.91926,2.57933 -14.80184,11.56319 -14.17552,21.64883 0.34497,5.55497 2.03117,9.6668 5.47765,13.35725 4.87798,5.22329 10.05577,7.10913 16.03886,5.84161 z m 36.25227,-0.14501 c 0.67872,-0.15675 1.53694,-0.64174 1.91872,-1.08428 0.85428,-0.99025 0.91091,-3.1508 0.22731,-8.67253 -1.53614,-12.40797 -1.08566,-19.84316 1.33232,-21.98993 1.0223,-0.90763 3.02787,-0.5334 5.35141,0.99857 2.62235,1.72897 2.68255,1.62177 2.68255,-4.77716 v -5.00674 h -15.34974 -15.34974 v 4.56655 c 0,4.52826 0.18165,6.48526 0.60198,6.48526 0.12003,0 0.86521,-0.50404 1.65595,-1.1201 2.79625,-2.17854 6.14388,-1.55215 7.8762,1.47374 0.7459,1.30291 0.76383,1.48171 0.74958,7.47473 -0.0154,6.46661 -0.52392,11.63721 -1.80255,18.32768 l -0.69229,3.62245 4.78516,-0.007 c 2.63184,-0.004 5.33775,-0.13493 6.01314,-0.2909 z m 93.85492,-0.62274 c 0.59555,-0.72966 0.6131,-0.97931 0.35596,-5.06542 -0.37191,-5.91006 -0.29332,-17.07342 0.15022,-21.33614 0.37721,-3.62524 1.45549,-11.58066 1.73803,-12.82304 l 0.15846,-0.69674 -6.68449,0.0827 -6.6845,0.0828 -0.0789,20.35865 -0.079,20.35865 5.24889,-0.097 c 5.17372,-0.0956 5.25786,-0.10799 5.87532,-0.86448 z m 31.39188,0.56136 c 0.43412,-0.1978 0.87258,-0.69144 0.97436,-1.09699 0.25279,-1.00718 -0.01,-4.19242 -0.84109,-10.20919 -0.84307,-6.10079 -1.0032,-14.90469 -0.31423,-17.27668 0.52893,-1.82101 1.80948,-2.98498 3.28395,-2.98498 0.57933,0 2.24843,0.53984 3.70911,1.19965 1.46067,0.65981 2.82557,1.13449 3.03309,1.05486 0.58907,-0.22605 0.75322,-1.66244 0.75322,-6.59081 v -4.56655 h -15.81023 -15.81024 l 0.005,5.14216 c 0.002,2.82819 0.12894,5.33847 0.2808,5.57839 0.23464,0.37072 0.38372,0.35767 0.99303,-0.087 0.39432,-0.28773 1.18635,-0.86393 1.76007,-1.28045 2.03088,-1.47439 4.82889,-0.84577 6.606,1.48414 0.64788,0.84941 0.87485,1.61114 1.1182,3.75273 0.50648,4.45741 -0.3732,15.2767 -1.86811,22.97609 -0.33218,1.71089 -0.60439,3.14524 -0.6049,3.18745 -6.1e-4,0.0422 2.68645,0.0768 5.97103,0.0768 3.91011,0 6.24445,-0.12416 6.76124,-0.35962 z m 40.1865,-0.25437 c 0.38807,-0.40227 0.36712,-0.75158 -0.16573,-2.76295 -0.50367,-1.90124 -0.58339,-2.94443 -0.45747,-5.9864 0.2742,-6.62385 1.79251,-11.14811 7.64449,-22.77905 2.2258,-4.42381 3.95171,-8.13849 3.83537,-8.25483 -0.11635,-0.11634 -3.46181,-0.28095 -7.43436,-0.3658 l -7.22283,-0.15426 -0.005,2.57619 c -0.012,5.79378 -1.12388,11.2913 -2.21521,10.9524 -0.2139,-0.0664 -0.66169,-0.66585 -0.99507,-1.33204 -0.51817,-1.03546 -0.62339,-2.00215 -0.72497,-6.66042 l -0.11883,-5.44916 h -8.10113 c -4.45563,0 -8.10113,0.0526 -8.10113,0.11686 0,0.0643 1.60025,3.48343 3.55612,7.59812 8.26484,17.38731 9.00815,20.3951 7.30819,29.57242 -0.25148,1.35764 -0.5311,2.71776 -0.62139,3.02249 -0.15531,0.52424 0.20013,0.54902 6.60544,0.46049 5.52707,-0.0764 6.85112,-0.17809 7.21382,-0.55406 z m -133.2695,-0.53724 c 0.0655,-0.12663 -0.15414,-2.64783 -0.48808,-5.60265 -0.73385,-6.49338 -0.75551,-12.31526 -0.0702,-18.88019 0.53121,-5.08888 1.61068,-13.29362 1.90924,-14.51159 l 0.17081,-0.69682 -6.71195,0.0828 -6.71194,0.0828 -0.0796,19.49417 c -0.0438,10.72179 -0.0136,19.66685 0.0671,19.87791 0.11022,0.28836 1.59446,0.38375 5.9711,0.38375 3.20343,0 5.878,-0.10361 5.94349,-0.23025 z m 36.1436,-1.84197 c 0.004,-7.83977 2.55581,-21.8554 5.84735,-32.11573 0.83571,-2.60507 1.51948,-4.95809 1.51948,-5.22893 0,-0.43729 -0.77094,-0.49245 -6.88295,-0.49245 h -6.88295 l -0.17097,1.91872 c -0.094,1.05529 -0.32086,4.47445 -0.50408,7.59812 -0.35718,6.08982 -0.77107,9.72862 -1.24979,10.98773 -0.25893,0.68106 -0.35621,0.72643 -0.73828,0.34436 -1.04239,-1.04239 -2.86533,-10.83623 -3.13149,-16.82409 l -0.18272,-4.11052 -7.02341,0.15548 c -3.86288,0.0855 -7.10056,0.23263 -7.19484,0.32691 -0.0943,0.0943 0.74092,3.05827 1.85601,6.58663 1.11509,3.52836 2.36894,7.92486 2.78632,9.77001 1.84969,8.17704 2.78072,16.40878 2.26653,20.0396 -0.18487,1.30542 -0.17639,2.10473 0.0244,2.30557 0.5739,0.5739 2.91341,0.73388 11.29468,0.77238 l 8.36562,0.0384 9.2e-4,-2.07222 z"
       id="path799" />
    <path
       style="fill:#ffcc00;stroke-width:0.0767487"
       d="m 138.0492,342.90451 c -1.53204,-0.25509 -1.81731,-1.34326 -1.09425,-4.1741 0.35058,-1.37259 1.93064,-6.1262 2.008,-6.04106 0.0273,0.0301 0.17654,0.7972 0.33162,1.70476 0.53314,3.12014 0.97092,5.21849 1.43481,6.87732 0.27001,0.96552 0.2412,1.1644 -0.20643,1.425 -0.43175,0.25137 -1.61565,0.35095 -2.47375,0.20808 z"
       id="path801" />
    <path
       style="fill:#ffcc00;stroke-width:0.868312"
       d="m 334.04024,175.77065 c -2.52591,-1.76921 -6.78243,-10.24301 -8.59388,-17.10854 -1.9101,-7.23941 -1.8925,-24.16925 0.0334,-32.12408 3.8115,-15.74321 11.11934,-22.00122 17.72301,-15.17696 11.959,12.35849 11.73042,52.56123 -0.3592,63.17606 -3.30409,2.90103 -5.90277,3.26515 -8.80333,1.23352 z"
       id="path803" />
    <path
       style="fill:#ffcc00;stroke-width:0.868312"
       d="m 192.5204,139.99574 c -0.97727,-3.2128 -2.20981,-7.79517 -2.739,-10.18303 -1.10055,-4.96608 -2.61116,-23.22277 -2.64036,-31.910479 l -0.0197,-5.861109 -17.14917,-0.0039 c -9.43205,-0.0022 -21.60376,-0.260604 -27.04826,-0.574295 l -9.89909,-0.570347 0.62455,14.4673 0.62455,14.46729 h -16.25147 -16.25148 l 0.5118,-22.359046 c 0.28149,-12.297475 0.93954,-23.809931 1.46233,-25.583235 0.77372,-2.624479 1.55023,-3.417676 4.17471,-4.264425 3.97103,-1.281193 248.20263,-2.138897 279.1425,-0.980305 21.86246,0.818674 21.88292,0.824543 23.1974,6.652786 0.39744,1.762171 1.00764,12.95326 1.35602,24.869086 l 0.63342,21.665139 h -11.4055 c -9.06064,0 -11.40551,-0.24379 -11.40551,-1.1858 0,-0.6522 -1.35997,-3.90424 -3.02217,-7.22678 C 376.32567,91.245226 349.60591,81.214049 325.61718,88.589357 311.95006,92.791295 299.85746,102.4697 293.9136,113.96356 l -3.02892,5.85714 -17.71076,0.003 -17.71076,0.003 0.58539,-10.20267 c 0.32198,-5.61147 0.8204,-12.05869 1.10762,-14.327156 l 0.52221,-4.124484 h -25.75433 c -19.86103,0 -25.82452,0.248367 -26.06104,1.08539 -0.16868,0.596965 -0.74271,5.774278 -1.27562,11.50514 -1.43583,15.4408 -7.10216,40.10358 -9.56337,41.62469 -0.39972,0.24705 -1.52636,-2.17948 -2.50362,-5.39229 z"
       id="path805" />
  </g>
</svg>
